<svg id="Layer_1" data-name="Layer 1" xmlns="http://www.w3.org/2000/svg" viewBox="0 0 600.18 600.18"><defs><style>.cls-1{fill:#fff;}</style></defs><title>160399139543f6ba17f3bca0627608ec</title><path d="M307,726.89q-148.09,0-296.19.09c-3.26,0-3.9-.64-3.9-3.9Q7,426.89,6.86,130.7c0-3.26.64-3.9,3.9-3.9q296.19.15,592.38,0c3.26,0,3.9.64,3.9,3.9q-.15,296.19,0,592.38c0,3.26-.64,3.91-3.9,3.9Q455,726.82,307,726.89Z" transform="translate(-6.86 -126.8)"/><path class="cls-1" d="M107.38,392.09c-2,2.13-3.31,3.69-4.78,5.11-8.89,8.64-19.06,8.37-27.49-.71-17.64-19-15.63-50.86,4.2-67.86,11.94-10.24,25.68-12.58,40.56-9.1,7.91,1.85,13,6.79,14.15,15.34.89,7-1.69,11.42-7.39,12.07a11.42,11.42,0,0,1-12.94-10.35c-.65-7.93-1.07-8.26-9-7-13.65,2.16-27.27,16-29.11,29.8a50,50,0,0,0,3.75,26.53c1.55,3.65,3.78,6.86,8.13,7.13,4.5.28,7.34-2.56,9.45-6.14a31.21,31.21,0,0,0,4.71-14.21c-3.68,1.43-6.8,3.71-10.61,2.38a12.73,12.73,0,0,1-6.06-4.4c-4.58-6-3.27-11.86,3.44-15.35a34.23,34.23,0,0,1,10-3,118.87,118.87,0,0,1,21.8-1.63c4.07,0,6.71,2,7.26,6s-2.37,5.89-5.71,6.12c-5.41.36-5.81,2.76-4.69,7.42,2.78,11.55,5,23.24,7.49,34.86.86,3.95.12,7-4.06,8.3-3.89,1.19-7.62-.81-8.91-5C110,403.26,108.86,398,107.38,392.09Z" transform="translate(-6.86 -126.8)"/><path class="cls-1" d="M113.5,492.93c0-9.68-.07-19.36,0-29,.07-9.1,5.54-15.2,14.57-15.33q29.25-.42,58.51-.05c9.4.11,15.3,6.35,15.38,15.8q.24,28.32,0,56.63c-.08,10.23-6.26,16.11-16.47,16.13q-26.64,0-53.29,0c-1.58,0-3.17,0-4.75-.14-8.24-.57-13.83-6.26-13.94-14.49C113.4,512.59,113.5,502.76,113.5,492.93Z" transform="translate(-6.86 -126.8)"/><path class="cls-1" d="M256.57,448.53c9.36,0,18.71-.18,28.06.05,9.52.24,15.36,5.51,15.55,15,.38,19.5.36,39,.07,58.5-.13,9-6.79,15-15.8,15q-28.31.15-56.6-.07c-10.4-.08-16.09-6-16.11-16.39q0-27.83-.06-55.65c0-10.87,5.42-16.34,16.35-16.45,9.52-.09,19,0,28.54,0Z" transform="translate(-6.86 -126.8)"/><path class="cls-1" d="M452.33,448.61c9.52,0,19,0,28.54,0,8.92.05,15.39,5.7,15.51,14.49q.4,29.72,0,59.44c-.1,8.31-6.67,14.61-15.1,14.69q-29,.27-58,0c-9.28-.1-15.21-6.5-15.23-15.89q-.09-28.53,0-57.06c0-9.54,5.82-15.42,15.29-15.54,9.67-.12,19.34,0,29,0Z" transform="translate(-6.86 -126.8)"/><path class="cls-1" d="M310.53,492.71c0-9.83-.06-19.66,0-29.48.06-8.14,5.72-14.35,13.88-14.45q30.19-.34,60.39,0c8.24.1,13.75,6.57,13.92,15.59.14,7.92,0,15.85,0,23.78q0,16.15.12,32.33c.05,10.35-6,16.75-16.37,16.81-18.55.12-37.09-.1-55.64,0-9.34.05-17.09-5.74-16.44-17C311,511.12,310.54,501.9,310.53,492.71Z" transform="translate(-6.86 -126.8)"/><path class="cls-1" d="M218.26,360a48.81,48.81,0,0,0-16,25.14c-1.75,6.88-2.55,14-3.79,21-.19,1.09-.46,2.17-.7,3.25-.5,2.21-1.67,4-4.12,3.78s-3.49-2.08-3.81-4.26a19.35,19.35,0,0,1-.27-5.67c2.14-14.28.74-28.44-1-42.61a28.34,28.34,0,0,1,.74-10.85c1.62-6.09,5.65-8.68,11.69-7.77,5.3.79,8.48,5,8.23,10.93,0,.92-.13,1.85-.25,3.44,3.53-2.18,6-5.52,10-5.54,4.34,0,6,3.52,8.05,7.08,2.69-2.74,4.32-6.08,7.48-8,5.61-3.33,8.64-2.07,9.62,4.24a279.8,279.8,0,0,1,3,41.2c0,3.74-1.17,6.37-5.09,6.62-4.15.26-5.33-2.65-5.57-6.18-.59-8.64-1.18-17.29-1.86-27.18-3.08,6.24-4.24,11.79-5.74,17.22-1.65,6-3.52,11.85-7.45,16.81-1.39,1.75-3,3.68-5.48,3s-2.43-3.15-2.78-5.11c-1.13-6.51-.2-13,1-19.37C215.35,374.14,216.85,367.1,218.26,360Z" transform="translate(-6.86 -126.8)"/><path class="cls-1" d="M484.56,327.26c-5.8,7.1-6.73,14.82-8,22.42a26.92,26.92,0,0,0-.17,2.85c-.43,8.82-.43,8.88,8.07,8.63,3-.09,5.47.46,6.2,3.76.68,3.09-1.18,4.7-3.79,5.72a13.69,13.69,0,0,0-1.3.59c-8.67,4.49-9.91,7.6-6.95,17a3.93,3.93,0,0,0,2.92,2.7c4.5,1.56,6.31,5.08,6.19,9.64-.14,5.28-3.76,10.93-7.59,12.36a5.55,5.55,0,0,1-6.47-1.7c-3.2-3.7-6-7.19-3.81-13.12,1.65-4.51-1.24-9.55-2.21-14.32-.43-2.09-2.12-.68-3.14-.5-8.06,1.47-13.85-3.8-12.85-11.79.61-4.87,3.77-7.84,10.11-8.11,3.86-.17,4.25-1.68,4.11-4.88a70.52,70.52,0,0,1,4.6-28,40.61,40.61,0,0,1,2.52-5.63c3.39-6.07,8.32-9.14,13.25-8.23,6.26,1.16,8.12,6.09,9.19,11.4a70.44,70.44,0,0,0,4.76,15.87,10.87,10.87,0,0,1,.3,8.8c-1.54,3.9-4,6.44-8.58,6a9.16,9.16,0,0,1-8-8.12c-.34-3.09.59-6,1.39-8.87A22,22,0,0,0,484.56,327.26Z" transform="translate(-6.86 -126.8)"/><path class="cls-1" d="M408.5,412a40.94,40.94,0,0,1-5.32-.61c-7.51-2-14.62-2-21.27,2.9-2.28,1.69-5.43,2.5-8.05.62-2.44-1.75-1.62-4.65-1.21-7.09,3.21-19.39,2.76-39.19,6.42-58.55.81-4.28.11-8.85,0-13.29-.08-4,0-7.92,1.39-11.73,2.32-6.52,7.35-9.19,13.35-7.11,6.15,2.14,8.81,7.76,6.7,14.1a26,26,0,0,1-4.49,8.31c-6.92,8.46-9.88,18.23-10.15,29-.2,8.39-.58,16.79-1,25.18-.13,2.6.28,4,3.33,2.92a7.3,7.3,0,0,1,3.77-.19c10.74,2.32,21.43-.57,32.15-.24,2.8.08,5.63-.16,6.42,3.34A5.87,5.87,0,0,1,427,406.6,85.74,85.74,0,0,1,408.5,412Z" transform="translate(-6.86 -126.8)"/><path class="cls-1" d="M164.76,396.22c-2.4,3.39-4.55,6.9-7.17,10-4.5,5.35-10.36,8-17.34,6.37-6.66-1.53-10.07-6.84-11.22-12.92-3.21-16.89,2-31.68,13.33-44.15,5-5.48,14.66-5.32,20.55-.79,2.68,2.05,3.74,4.75,2.65,8-.81,2.38-.09,3.09,2.28,3.15,4,.12,5.84,2.41,6.17,6.37a47.08,47.08,0,0,0,4.69,16.34c2.62,5.51,2.09,9.45-1.11,11.64s-7.3,1.14-11.69-3.17A8.65,8.65,0,0,0,164.76,396.22Z" transform="translate(-6.86 -126.8)"/><path class="cls-1" d="M254.7,376c.1-13.77,10.54-26.79,22.27-28.27,13.32-1.68,20.61,6.82,17.06,19.85a17.3,17.3,0,0,1-8.69,10.78c-4.84,2.77-10.14,4.44-15.3,6.45-2.33.91-2.69,2-1.23,3.79a41.83,41.83,0,0,0,4.95,5.72c4.68,4,9.57,2.72,11.29-3.18,1.2-4.13,3.23-6.8,7.76-6.94,3.94-.12,7.41,1,9.07,4.79,1.76,4,.58,7.74-2.28,11a24.72,24.72,0,0,1-39.34-3.12C256.13,390.27,255,383,254.7,376Z" transform="translate(-6.86 -126.8)"/><path class="cls-1" d="M503,376.39c-.11-12.68,7.93-24.59,18.93-28,8.4-2.62,16.32-.27,19.27,5.73,3.66,7.48,1.19,17.87-5.43,22.69-5,3.61-10.71,5.5-16.4,7.43-3.64,1.24-4,2.81-1.68,5.56.93,1.08,1.73,2.28,2.72,3.3,5.43,5.57,10.85,4.47,13.1-2.85,1.13-3.68,3.19-5.76,7-6s7.33.74,9.34,4.37c2.1,3.81,1,7.4-1.47,10.61-9.24,11.87-29.13,11.84-38.3,0C504.84,392.43,503.1,384.66,503,376.39Z" transform="translate(-6.86 -126.8)"/><path class="cls-1" d="M324.53,349.87c4.79-4.91,9.73-8.19,16.11-8.57s10.76,3.63,10.11,9.56c-.47,4.21-3,6.56-7,7.22-21.66,3.58-20.76,10-20.39,26.67.11,5.07.67,10.13.81,15.19.1,4.05-2.44,6.12-6.16,6.53s-6.38-1.35-6.95-5c-2.77-17.51-7.08-34.83-7.22-52.69-.06-8.09,6-12.57,13.67-10.43C321.51,339.46,323.25,342.18,324.53,349.87Z" transform="translate(-6.86 -126.8)"/><path class="cls-1" d="M447.74,365.36c-.87,8.15-1.84,17.77-3,27.38a74.69,74.69,0,0,0-.26,11.87c.13,2.95-.31,5.89-4.18,6.32s-5.33-1.56-6-5.1c-2.52-12.9-5.78-25.67-6.88-38.83-.08-.95-.21-1.89-.25-2.84-.34-7.66,3.7-12.49,10.42-12.48C444.07,351.69,448,356.37,447.74,365.36Z" transform="translate(-6.86 -126.8)"/><path class="cls-1" d="M443.17,338.57c0,6.71-3.15,9.62-9.16,10.42-3.71.49-6.93,1.51-9-2.9-1.27-2.75-1.4-5.25.61-7.47a15.91,15.91,0,0,1,13.57-5.34C442.87,333.56,443.06,336.4,443.17,338.57Z" transform="translate(-6.86 -126.8)"/><path d="M157.41,527.91c-9.2,0-18.4.05-27.6,0-5.45,0-7.52-2-7.53-7.43q-.06-27.6,0-55.2c0-5.56,2.16-7.69,7.87-7.71q27.36-.06,54.72,0c6,0,7.77,1.8,7.78,7.57q.08,27.36.06,54.73c0,6.57-1.5,8-8.21,8Q171,527.93,157.41,527.91Z" transform="translate(-6.86 -126.8)"/><path d="M256.14,457.55c9,0,18.08,0,27.11,0,5.67,0,7.58,1.73,7.6,7.2q.09,28.07,0,56.14c0,5-2,6.85-7,6.86q-28.06.11-56.13,0c-5.16,0-7.3-2-7.32-7.2q-.12-28.05.11-56.12c0-5.12,2.2-6.93,7.53-7,9.36,0,18.71,0,28.07,0Z" transform="translate(-6.86 -126.8)"/><path d="M487.19,492.6c0,9.19,0,18.38,0,27.58,0,6.12-1.58,7.71-7.5,7.72q-27.57,0-55.15,0c-5.77,0-7.82-1.92-7.84-7.62q-.12-27.11,0-54.21c0-6.62,2.08-8.53,8.49-8.53q26.86,0,53.73,0c7,0,8.24,1.3,8.28,8.41C487.22,474.85,487.19,483.72,487.19,492.6Z" transform="translate(-6.86 -126.8)"/><path d="M354.26,527.9c-9.36,0-18.72,0-28.07,0-5.12,0-7-1.73-7-6.81q-.12-28.08,0-56.15c0-5.24,2.08-7.26,7.26-7.28q27.84-.07,55.68,0c5.47,0,7.52,2.09,7.54,7.49q.07,27.84,0,55.67c0,5.12-2,7-7.34,7-9.36,0-18.72,0-28.08,0Z" transform="translate(-6.86 -126.8)"/><path d="M147.2,366.85c3,2.59,6.14,3.91,9.82,3.38,1.47-.21,2,.2,1.87,1.74-1,9.07-3.12,17.76-8.64,25.28a7.89,7.89,0,0,1-1,1c-1.78,1.67-3.89,3.38-6.29,2.49-2.24-.84-2.5-3.46-2.7-5.7C139.4,385.1,142.17,376,147.2,366.85Z" transform="translate(-6.86 -126.8)"/><path d="M279.42,356.85a3.61,3.61,0,0,1,3.95,3A7.91,7.91,0,0,1,280.9,368c-2.76,2.6-6.34,3.39-9.75,4.49-1.58.51-3.65,2.11-4.83.85-1.5-1.61-.05-3.9.79-5.66C269.64,362.43,272.89,357.88,279.42,356.85Z" transform="translate(-6.86 -126.8)"/><path d="M513.63,374.07c.91-7.09,3.91-12.35,9.6-15.81,2.22-1.35,5.17-2.7,7.33-.15s1.62,5.71-.22,8.33a11.49,11.49,0,0,1-3.91,3.31C522.58,371.83,518.34,372.84,513.63,374.07Z" transform="translate(-6.86 -126.8)"/><path class="cls-1" d="M174.45,460.2c0,3.9-2.9,6.47-4.36,9.65-.92,2-4,4.85-2,6,2.42,1.36,2.69-2.9,4.13-4.51,2.37-2.66,2.84-6.81,7.17-9.73-1.13,5.9-4.6,9.18-6.28,13.31-.5,1.24-2.3,2.84-.81,3.72,2,1.16,2.33-1.41,3.06-2.57,1.77-2.81,3.3-5.78,5-8.61.59-1,1.05-3,2.57-2.1,1.82,1,.19,2.49-.44,3.61-1.87,3.31-3.84,6.56-5.75,9.84-.47.81-1.16,1.79-.15,2.55,1.46,1.08,1.94-.46,2.44-1.28,2-3.25,3.84-6.56,5.74-9.85.62-1.07,1.21-2.87,2.58-2.21,1.66.8.18,2.22-.36,3.18-3,5.38-6.15,10.71-9.22,16.07-.83,1.45-2.08,3-3.54,2.9-4.51-.26-5.74,3-7.45,6q-7.09,12.36-14.28,24.68a26.42,26.42,0,0,1-2.07,3.16c-1.42,1.83-3.19,2.7-5.35,1.23s-2-3.43-.9-5.43q5.78-10.11,11.63-20.17c2.07-3.57,4.16-7.12,6.3-10.63.78-1.27,1.63-2.62.53-3.92-2.52-3-1.12-5.58.42-8.27,2.69-4.67,5.29-9.39,8-14C171.81,461.68,172.23,460,174.45,460.2Z" transform="translate(-6.86 -126.8)"/><path class="cls-1" d="M134,462.32a5.5,5.5,0,0,1,4.9,3.19c5.19,9.07,10.28,18.2,15.75,27.09,2,3.32,0,5.3-1.21,7.76s-4,2.33-6.06,3.05c-1.17.4-2-1.27-2.61-2.38-5.51-9.61-11.1-19.17-16.54-28.82C125.54,467.38,128.58,462.34,134,462.32Z" transform="translate(-6.86 -126.8)"/><path class="cls-1" d="M170.39,519.9c.21,3.47-2.68,5.52-5.13,4.5-4.59-1.92-7.21-11.12-4.23-14.94.63-.8,1.57-2.43,2.48-1.08C166.14,512.29,168.37,516.47,170.39,519.9Z" transform="translate(-6.86 -126.8)"/><path class="cls-1" d="M255.49,494.35c6.81,0,13.62-.07,20.43,0,3.53.05,5.92-.66,5.34-5-.24-1.81.27-3.65,2.69-3.6s2.8,1.76,2.82,3.63q.08,7.83,0,15.68c0,1.91-.74,3.56-2.89,3.65s-2.78-1.59-2.61-3.25c.42-3.92-2.08-3.95-4.78-3.95-13.94,0-27.88.09-41.82,0-3,0-4.47.69-4.22,3.94.13,1.71-.7,3.28-2.65,3.28-2.27,0-2.77-1.8-2.77-3.66,0-8.24,0-16.48,0-24.72,0-1.84.29-3.77,2.56-3.8s2.82,1.7,2.83,3.64c0,3.17.18,6.35,0,9.5-.21,3.44,1,4.81,4.59,4.69,6.8-.23,13.61-.06,20.43-.06Z" transform="translate(-6.86 -126.8)"/><path class="cls-1" d="M264.6,492.67c-3.65,0-7.29-.07-10.94,0-2.83.07-4.1-1.11-3.84-4a25.49,25.49,0,0,0,0-4.28c-.26-3.25,1.07-4.51,4.42-4.4,5.86.18,11.73-.13,17.59,0s9.47,5.21,7.65,10.85c-.6,1.84-2,1.77-3.43,1.78-3.8,0-7.61,0-11.41,0Z" transform="translate(-6.86 -126.8)"/><path class="cls-1" d="M240.39,492.55a21.31,21.31,0,0,1-4.73-.06c-2.4-.58-4-2.3-1.48-4.21,2.13-1.6,1.09-2.17,0-3.44-2-2.51-1.14-4.79,1.08-6.58s4.4-1.11,6.26.86c.61.65.75,2.06,1.91,1.83,8.73-1.75,4.15,5,4.65,7.84.76,4.39-3.07,3.74-5.85,3.84-.63,0-1.26,0-1.89,0Z" transform="translate(-6.86 -126.8)"/><path class="cls-1" d="M483,476.42c-.06,12.11,1.73,11.34-11.06,11.32-2.86,0-5.73.19-8.56-.07-3.64-.33-4.38-2.26-2.16-5,4.71-5.92,4.34-7.11-2.94-9.37-10.06-3.13-21.5,2.2-25.16,11.72a20.45,20.45,0,0,0,37,17.34c1.28-2.43,2.11-4.68,5.68-4.65,6.77.08,7.29.61,4.67,6.92-6.64,16-25.24,23.45-40.71,16.34-16.23-7.46-23.17-26.78-15.09-42,8.6-16.18,27.66-21.91,43-12.47,4.14,2.56,6.95,3.82,10.57-.53,2-2.39,4.46-1.26,4.73,1.92C483.21,470.7,483,473.57,483,476.42Z" transform="translate(-6.86 -126.8)"/><path class="cls-1" d="M368.16,478.65c-3.61.35-7.57-1-10.22,2.57-.83,1.11-1.77,2.49-1.23,3.92s2.2.81,3.35.85c3,.12,6-.1,9,.05a16.86,16.86,0,0,1,15.51,12,16,16,0,0,1-5.18,16.66c-5.84,4.62-12.9,5-19.42.81-3.73-2.4-7.18-2.54-11-.09-6.49,4.2-13.37,3.93-19-.43a15.89,15.89,0,0,1-5.54-17.42c2.14-6.65,7.91-10.87,15.41-11.27,1.42-.08,2.85-.09,4.27-.11,4.2,0,8.59,1.22,9.56-5.57.57-4,4.7-6.15,9.08-6.26,3.17-.09,6.34,0,9.51,0,3.67,0,7-.65,8.32-4.8a2.36,2.36,0,0,1,3.4-1.57c2,.77,1,2.34.51,3.57a10.68,10.68,0,0,1-8,6.78A24.35,24.35,0,0,1,368.16,478.65Z" transform="translate(-6.86 -126.8)"/><path d="M242.89,484c.39,1.51,1,2.93-1.09,3.43-.35.09-1.15-.24-1.17-.44C240.46,485.42,241.62,484.76,242.89,484Z" transform="translate(-6.86 -126.8)"/><path d="M380.65,502.23a10.71,10.71,0,0,1-6.17,10.42A11.17,11.17,0,0,1,362.4,512a13.93,13.93,0,0,0-16.11.1,12.14,12.14,0,0,1-13.77-.46,11.79,11.79,0,0,1-4-12.73,11.44,11.44,0,0,1,11-8.2c10-.08,20-.11,29.94,0A11.1,11.1,0,0,1,380.65,502.23Z" transform="translate(-6.86 -126.8)"/><path class="cls-1" d="M346.94,502.33c0,1.06-.38,2.08-1.4,2.18-2.31.24-3.7,1.1-3.85,3.65-.06.95-1.38,2-2,1.41a58.47,58.47,0,0,1-6.8-7.45c-.6-.81.72-1.79,1.86-2.25,1.41-.57,9.55-.53,10.81.19A2.44,2.44,0,0,1,346.94,502.33Z" transform="translate(-6.86 -126.8)"/><path class="cls-1" d="M369.24,509.37a2.17,2.17,0,0,1-2.37-2.31,1.86,1.86,0,0,1,1.95-2.1,2,2,0,0,1,2.32,1.73C371.4,508.19,370.56,509,369.24,509.37Z" transform="translate(-6.86 -126.8)"/><path class="cls-1" d="M374,500.13c1.18.24,2.12.93,2.1,2.12a2.15,2.15,0,0,1-2.43,2.24,2,2,0,0,1-2-2.55A2.09,2.09,0,0,1,374,500.13Z" transform="translate(-6.86 -126.8)"/><path class="cls-1" d="M371.16,497.5a2,2,0,0,1-2.16,2.12,1.87,1.87,0,0,1-2.15-1.94c0-1.57.94-2.21,2.4-2.22S371,496.55,371.16,497.5Z" transform="translate(-6.86 -126.8)"/><path class="cls-1" d="M366.31,502.23c-.17,1.45-.69,2.34-2.08,2.17a2.06,2.06,0,0,1-2-2.54,1.93,1.93,0,0,1,2.35-1.68A1.83,1.83,0,0,1,366.31,502.23Z" transform="translate(-6.86 -126.8)"/></svg>